<?xml version="1.0" encoding="UTF-8"?>
<svg width="1134px" height="533px" viewBox="0 0 1134 533" version="1.1" xmlns="http://www.w3.org/2000/svg" xmlns:xlink="http://www.w3.org/1999/xlink">
    <!-- Generator: Sketch 52.5 (67469) - http://www.bohemiancoding.com/sketch -->
    <title>Artboard</title>
    <desc>Created with Sketch.</desc>
    <g id="Artboard" stroke="none" stroke-width="1" fill="none" fill-rule="evenodd">
        <g id="casper-logo" transform="translate(27.000000, 95.000000)" fill="#1E306E">
            <path d="M338.106217,72 C286.251295,72 247,109.192538 247,162.273152 C247,215.353764 286.431347,252.546302 338.106217,252.546302 C362.953367,252.546302 382.03886,241.171884 389.781088,232.14457 L389.781088,250.199201 L430.292747,250.199201 L430.292747,74.1665557 L389.781088,74.1665557 L389.781088,92.221186 C382.03886,83.1938708 361.693004,72 338.106217,72 Z M339.186529,215.353764 C308.757772,215.353764 286.251295,191.702198 286.251295,162.273152 C286.251295,132.844104 309.838083,109.192538 339.186529,109.192538 C368.534974,109.192538 390.8614,132.844104 390.8614,162.273152 C390.8614,191.702198 368.534974,215.353764 339.186529,215.353764 Z M686.86658,72 C663.279793,72 645.274611,81.0273152 633.931346,92.4017322 L633.931346,74.3471019 L594.680052,74.3471019 L594.680052,343 L634.1114,338.486342 L634.1114,231.241839 C645.454662,243.699534 664.540155,251.64357 687.046632,251.64357 C741.062177,251.64357 777.072539,216.617589 777.072539,161.37042 C776.892488,107.025983 741.062177,72 686.86658,72 Z M685.786269,215.353764 C654.277203,215.353764 634.1114,192.785477 634.1114,162.273152 C634.1114,131.760826 654.457254,109.192538 685.786269,109.192538 C717.295337,109.192538 738.721503,131.760826 738.721503,162.273152 C737.641191,192.785477 717.295337,215.353764 685.786269,215.353764 Z M1080.81995,72 C1056.15285,72 1042.46891,81.0273152 1034.72668,92.4017322 L1034.72668,74.3471019 L995.295338,74.3471019 L995.295338,250.379747 L1034.72668,250.379747 L1034.72668,153.245836 C1034.72668,127.247168 1052.73186,109.192538 1077.57901,109.192538 L1081,109.192538 C1080.81995,109.192538 1080.81995,72 1080.81995,72 Z M882.762953,72 C831.088083,72 790.576425,112.622918 790.576425,162.273152 C790.576425,211.923384 831.088083,252.546302 882.762953,252.546302 C925.615284,252.546302 960.365286,228.894736 971.708548,197.299135 L924.354922,197.299135 C918.773316,208.673551 904.009067,216.437042 882.762953,216.437042 C856.835493,216.437042 836.669689,198.382411 832.168394,175.814124 L972.78886,175.814124 C973.869172,171.300466 973.869172,166.78681 973.869172,162.273152 C973.869172,112.622918 933.357514,72 882.762953,72 Z M834.329015,140.788142 C839.910622,122.733511 859.176166,108.10926 882.762953,108.10926 C905.26943,108.10926 925.615284,122.733511 931.196892,140.788142 C931.196892,140.788142 834.329015,140.788142 834.329015,140.788142 Z M514.737047,107.025983 C506.814767,107.025983 497.812176,110.456362 497.812176,120.566955 C497.812176,131.941373 509.155441,135.191206 530.401554,143.135244 C559.569949,154.50966 574.334198,168.050632 574.334198,195.132578 C574.334198,223.297802 550.747409,252.726848 510.235751,252.726848 C469.724093,252.726848 448.297927,222.214523 447.217617,197.479679 L485.568654,197.479679 C487.909326,208.854097 496.911917,217.881412 510.415803,217.881412 C525,217.881412 534.002591,207.770819 534.002591,196.396403 C534.002591,188.452365 530.581607,179.42505 505.914508,172.744837 C478.906736,165.884078 459.821243,151.259826 459.821243,122.011326 C459.821243,94.9293804 483.40803,73.4443705 513.836788,73.4443705 C540.844559,73.4443705 557.76943,92.5822784 565.511658,105.039973 L532.92228,119.664224 C528.240933,110.275816 521.579015,107.025983 514.737047,107.025983 Z" id="Shape" fill-rule="nonzero"></path>
            <path d="M127.472223,0 C55.2500001,0 0,56.6057142 0,127 C0,197.394286 55.2500001,254 127.472223,254 C173.694444,254 216.666667,228.962858 235.805556,193.947142 L198.611111,173.445714 C183.986111,199.571428 159.069445,214.267142 127.472223,214.267142 C104.902778,214.267142 82.3333333,205.195714 67.7083334,189.23 C51.8194445,172.175714 42.9722222,150.585714 42.9722222,127.907143 C42.9722222,105.228571 52.0000001,83.6385714 67.7083334,66.5842858 C82.3333333,50.6185714 103.819444,41.5471428 127.472223,41.5471428 C152.388888,41.5471428 167.013889,49.53 177.125001,57.5128572 C188.5,65.4957142 199.694443,73.4785714 218.833334,73.4785714 C253.861112,73.4785714 269.569444,45.1757142 273,30.2985714 L233.458334,22.3157142 C233.458334,23.4042858 230.027777,34.8342858 218.833334,34.8342858 C213.236111,34.8342858 209.805557,32.4757142 201.861111,26.8514286 C187.416667,13.6071429 168.097222,0 127.472223,0" id="Path"></path>
        </g>
    </g>
</svg>