<svg xmlns="http://www.w3.org/2000/svg" viewBox="0 0 101.28 106"><defs><style>.cls-1{fill:#684c47;}.cls-2{fill:#f4dcba;}.cls-3{fill:#0a88bf;}.cls-4{fill:#48b8e3;}.cls-5{fill:#ffd14f;}.cls-6{fill:#13202f;}.cls-7{fill:#fff;}.cls-8{fill:#eabe8c;}.cls-9{fill:#9c7357;}</style></defs><title>Mailchimp</title><g id="Layer_2" data-name="Layer 2"><g id="Content"><path class="cls-1" d="M99.7,75.75C99.62,76,91.82,106,61.16,106,34.66,106,22.1,83,22.1,83a13.73,13.73,0,0,1-5.51-.83A15.18,15.18,0,0,1,7.76,62.91L3.49,59.64C-13.07,47,33.83-10.67,50.41,2.39l4,3.18C60.32,2,66.22,0,71,0c3.4,0,6.25,1,8.17,3.06,4.3,4.66,2.76,13.56-3.12,22.57a14.79,14.79,0,0,1,3.06,4.45,10.59,10.59,0,0,1,3.68,6.66c.67,3.37.81,8.16,1.23,10.22,1.58.72.91.38,2.6,1.23a23.07,23.07,0,0,1,6.28,4.23c4.21,1.06,5.82,5.54,3.36,8.6l-.67.79A15.86,15.86,0,0,1,97.06,66a5.57,5.57,0,0,1,3.87,3c1.26,3.05-1.22,6.72-1.22,6.72ZM87.55,98.4v1.26H88V98.4h.49V98H87.07v.4Zm1.12-.4v1.65h.44V98.46l.36,1.19h.37l.36-1.2v1.2h.44V98H90l-.3,1-.3-1Z"/><path class="cls-2" d="M28.35,64.46h0a26.25,26.25,0,0,0,1-3.09,19.54,19.54,0,0,1,1,7.28h0a15,15,0,0,0,1.31-2.43c1.18,6.94-3.89,13.29-10.56,13.29-5.92,0-10.73-5.06-10.73-11.29s4.8-11.29,10.73-11.29a10.23,10.23,0,0,1,4.32,1s2.28,1.15,2.92,6.58ZM86.71,88.93a27.32,27.32,0,0,0,9.91-14.67c2-2.45,1.49-4.87-1.21-4.87a5,5,0,0,0-1.51.23,14.14,14.14,0,0,0-1.65-6.37,33.33,33.33,0,0,1-9.47,6.49,43.71,43.71,0,0,1-17.39,4.12h0c-2,.09-3.27-.24-4,2.11a4.86,4.86,0,0,0,0,2.42c.57,1.95,2.05,2.81,4,3.26a17,17,0,0,0,3.06.38C83.15,82.45,94.9,71,95,70.95a2.24,2.24,0,0,0,.25-.24l-.14.34C93,75.79,80.8,84.4,68.62,84.16h0c-2.82,0-6.25-.74-8-2.95-2.82-3.5-1.36-9.32,3.14-9.45l1.5,0c11.13-.34,21.12-4.43,28.28-13,1-1.22-.12-2.9-2.25-3l0,0a20.47,20.47,0,0,0-6.73-4.67c-4.14-2.11-3.75-.29-4.72-10.53-.26-2.76-.78-6.53-3.21-8a3.94,3.94,0,0,0-2.05-.54,3.81,3.81,0,0,0-1.2.18,6.32,6.32,0,0,0-3,1.92c-4.47,4.12-8,3-13.38,3A10.24,10.24,0,0,0,46.58,46h0a17.33,17.33,0,0,0,.3,6.95,11.15,11.15,0,0,1-2-1.71c.78,4.9,5.26,8.11,5.26,8.11a7.29,7.29,0,0,1-1.72.09,18.72,18.72,0,0,0,4.77,2.72,18.32,18.32,0,0,0-5,7.2,19.47,19.47,0,0,0-.83,8.16l1.22-1.82a16,16,0,0,0,.75,8c.51-1.17,1.63-3.26,1.63-3.26a16.34,16.34,0,0,0,1.92,7.93c.05-.82.37-2.92.37-2.92a16.89,16.89,0,0,0,4,6.33c5.21,4.62,19,5.46,29.5-2.79Z"/><path class="cls-3" d="M9.36,59.73s-4-2.94-4.6-3.91C1.4,50.16,7.25,38.51,11.41,31.89,21.69,15.53,38.8,2.62,46.57,4.46l8,4.12a64.56,64.56,0,0,0-7.89,5.55L45,15.56S40,18.89,37.54,21C27.65,29.44,17.91,42.5,14.3,55.11a13.69,13.69,0,0,0-4.94,4.63Z"/><path class="cls-4" d="M46.57,4.46h0C38.8,2.62,21.69,15.53,11.41,31.89h0l8.19,6.45A76.31,76.31,0,0,1,40.25,16.5l-1.3-8.74L41.38,6.6l4.88,1.58-.37-1.63.68-2.09Z"/><path class="cls-5" d="M54.55,8.58l-7.89,5.55-.55.43-7-5.72-.16-1.08L41.38,6.6l4.88,1.58.08-3,.22-.69,2.14-.82,5.84,4.94Z"/><path class="cls-6" d="M70.12,3.14C64.91,3.14,59,5.88,54.55,8.58c-.63.37-1.26.76-1.87,1.15l-2.35-2,.85,3-.95.66L45.38,9.91l3.22,2.69c-.73.56-1.39,1.08-1.93,1.53L38.95,7.76l.41,2.85L45,15.55S40,18.89,37.54,21C27.65,29.44,17.91,42.5,14.3,55.11l.21-.12.08,0,.3-.16.19-.1.31-.14.18-.08.34-.13.16-.06.49-.16a13.8,13.8,0,0,1,9.7.46,60.24,60.24,0,0,1,8-14.83c3-3.92,5.88-7.43,9.34-9.36,6.55-6.15,24.19-12.67,29.85-7a37.53,37.53,0,0,0,3.45-6.85c2.36-6.24,2.4-13.38-6.77-13.38Z"/><polygon class="cls-6" points="47.72 8.65 46.57 4.46 45.89 6.55 46.3 8.19 47.72 8.65 47.72 8.65"/><path class="cls-7" d="M93.9,69.61a14.14,14.14,0,0,0-1.65-6.37,33.33,33.33,0,0,1-9.47,6.49,43.71,43.71,0,0,1-17.39,4.12h0c-2,.09-3.27-.24-4,2.11a3.85,3.85,0,0,0-.11.66v0h0c0,.08,0,.15,0,.23s0,.4,0,.57h0v0c0,.1,0,.2,0,.3h0a2.15,2.15,0,0,0,.13.57h0v0c.58,1.93,2.06,2.78,4,3.23a17,17,0,0,0,3.06.38c11.93.33,21.95-7.2,25.31-10a20.6,20.6,0,0,0,.06-2.39ZM59.62,5.87a28.69,28.69,0,0,1,8.84-2.65A36.6,36.6,0,0,0,57.79,8c-.1.06-9.94,6.7-16,12.66-3.28,3.25-16.43,19-16.42,19a63,63,0,0,1,7.79-11.57c2.15-2.71,4.45-5.34,6.8-7.77q1.19-1.23,2.39-2.38h0a65,65,0,0,1,17.22-12Z"/><path class="cls-8" d="M86.71,88.93a29.09,29.09,0,0,1-4.43,2.87,14.19,14.19,0,0,1-5.67-4.18,35.09,35.09,0,0,0,7-2.76,38.49,38.49,0,0,0,13-10.61,27.32,27.32,0,0,1-9.91,14.67ZM77.15,51A3.53,3.53,0,0,0,72,52.76c1,0,2,.79,2,1.75a3.77,3.77,0,0,1,2.64-1A1.92,1.92,0,0,1,77.15,51ZM59.32,75.41a4.6,4.6,0,0,1,4.36-3.64l1.5,0c11.13-.34,21.12-4.43,28.28-13,1-1.22-.12-2.9-2.25-3h0c-.36.38-.43,1.08-1,2.12C88,61.71,85,63.43,81,65.44c-12.3,6.13-18.68,3.28-21.24,7a3,3,0,0,0-.4,2.95ZM81.58,49.72c-1.18-.84-1.22-2.32-1.86-9.13-.21-2.17-.57-5-1.9-6.76a1.81,1.81,0,0,0-1.22-.52c-.84,0-1.79.83-2.33,1.43A13,13,0,0,1,68.7,39.6,16.78,16.78,0,0,1,61,41.13c-1.89-.06-3.54-.37-5.16-.39a8.87,8.87,0,0,0-7.5,3.32,9.48,9.48,0,0,0-2,5.44c0,.25,0,.48,0,.7s.05.64.09.94a8.66,8.66,0,0,0,.32,1.59v0l0,.15a11.15,11.15,0,0,1-2-1.71c.65,4.09,3.87,7,4.92,7.85l.18.14h0l.14.1a7.29,7.29,0,0,1-1.72.09,18.72,18.72,0,0,0,4.77,2.72,16.55,16.55,0,0,1,9-3.73c1.66-1,3.44-2,5.35-3-.58-3.6,2.62-7.23,6.64-7.58a5.72,5.72,0,0,1,5.57,2.59l2-.6-.09-.08ZM83,74l-.11,0c-1.21.28-13.72,5.12-21.62,2.64a4.75,4.75,0,0,0,.15,1.74h0a23.13,23.13,0,0,0,4.47.39c10.4,0,17.9-4.73,17.11-4.79ZM24.85,73h0a3,3,0,0,0,.75-2.54c-.23-1.31-1.72-1.57-2.7-2.59l0,0,0-.05h0a2.19,2.19,0,0,1-.56-1.6,1.48,1.48,0,0,1,1.89-1.47,2.48,2.48,0,0,1,1.3,1h0a3.15,3.15,0,0,0-.51-1.31,4.55,4.55,0,0,0-4.78-1.58h0a4.72,4.72,0,0,0-.63.16l-.18.06c-.14.06-.26.11-.38.17h0a5.35,5.35,0,0,0-.85.52C15.44,67.14,20,73.39,24.85,73Z"/><path class="cls-9" d="M64.19,51.83c.23.33.29.58.19.68s-.83-.07-1.79-.45c-2.45-.91-4.25-1.05-7.45.16a5.24,5.24,0,0,1-1.66.51c-.45-.07,0-.89,1-1.68a7.29,7.29,0,0,1,7-1.2,6,6,0,0,1,2.74,2Zm-.49,2.51a4.33,4.33,0,0,0-3.19-.64,6.9,6.9,0,0,0-.76.19l-.26.09a4.41,4.41,0,0,0-1.44.89c-.51.49-.66,1-.51,1.07s.5-.06,1-.28A8.77,8.77,0,0,1,63,55c.6,0,1,.08,1.09-.09s-.05-.32-.34-.54Zm-39.48,9.4h0a3.6,3.6,0,0,1,.7.74c.56.8.38,1.26.62,1.49a.29.29,0,0,0,.32.06c.32-.13.48-.64.51-1h0a3.56,3.56,0,0,0-1-2.49h0A5.24,5.24,0,0,0,24,61.39a5.92,5.92,0,0,0-2-.67,7.41,7.41,0,0,0-2.86.16h0c-.18.05-.4.1-.59.17a6.49,6.49,0,0,0-4,4.24h0A7.42,7.42,0,0,0,14.4,69h0a5,5,0,0,0,1.09,2.29h0c.7.75,1.46.61,1.13-.09a6.07,6.07,0,0,1-.56-2.42A7.08,7.08,0,0,1,16.5,66a5.28,5.28,0,0,1,.79-1.37A5,5,0,0,1,19,63.29h0c.12-.06.25-.11.38-.17l.18-.06a4.72,4.72,0,0,1,.63-.16h0a4.77,4.77,0,0,1,4.07.84Zm-.35,3.19a1,1,0,0,1-.4-.57.76.76,0,0,1,.32-.94c.28-.19.51-.29.51-.41s-.94-.47-1.6.18A2.06,2.06,0,0,0,22.86,68c1,1.06,2.51,1.31,2.74,2.64a2.53,2.53,0,0,1,0,.61,3.21,3.21,0,0,1-.08.6A3,3,0,0,1,22,74c-.37-.05-.61-.1-.68,0s.71,1.2,2.29,1.17a3.94,3.94,0,0,0,3.57-2.93,4.42,4.42,0,0,0,.16-1,4,4,0,0,0-.06-1c-.4-2.23-2.62-2.69-3.44-3.35ZM77.68,51c-.61-.1-1.21.51-1.34,1.34A1.38,1.38,0,0,0,77.21,54c.61.1,1.21-.51,1.34-1.34A1.38,1.38,0,0,0,77.68,51ZM71,53.43a1.82,1.82,0,0,0,3,1.67,1.82,1.82,0,0,0-3-1.67ZM46.41,28.68c11.55-7.48,23.08-8.34,27-5.31h0s-.07-.2-.1-.24h0a8.75,8.75,0,0,0-5.43-4.22A8.14,8.14,0,0,1,69,20.4a16.61,16.61,0,0,0-5.85-2.49l.3.23a5.63,5.63,0,0,1,1.25,1.6,13.09,13.09,0,0,0-7-.87l-.28.07.36.09a4.83,4.83,0,0,1,2.29,1.3A16.83,16.83,0,0,0,50,21.64h.52a8,8,0,0,1,3.16.57c-2.36.48-5.78,1.54-7.63,3.12A15.63,15.63,0,0,1,49,25.18,40.62,40.62,0,0,0,34.26,39.75h0A47.73,47.73,0,0,1,46.41,28.68Z"/><path class="cls-1" d="M73.65,45c0-.8.11-2.11.86-2.35h0c1.28-.44,3,2.83,3.05,5.75a6.42,6.42,0,0,0-3.42-.62A9.86,9.86,0,0,1,73.65,45Z"/></g></g></svg>