<svg xmlns="http://www.w3.org/2000/svg" viewBox="0 0 231.97 67.8"><defs><style>.cls-1{fill:#4dbdeb;}</style></defs><title>Moz</title><g id="Layer_2" data-name="Layer 2"><g id="Content"><path class="cls-1" d="M197.81,44.08l34.14-36H161.66a2.62,2.62,0,0,0-2.52,2.49v7.26C152.58,7.22,139.72,0,124.93,0,105.61,0,89.58,12.33,86.6,28.47V8.1H74.36A10.31,10.31,0,0,0,67,11.43L43.31,37.77,19.61,11.43A10.29,10.29,0,0,0,12.24,8.1H0V60.7H14.29a2.67,2.67,0,0,0,2.52-2.57h0V33.45L43.31,63l26.47-29.5V58.13a2.66,2.66,0,0,0,2.52,2.57H86.6V39.33c3,16.14,19,28.47,38.33,28.47,21.45,0,38.83-15.18,38.83-33.9a29.91,29.91,0,0,0-1.46-9.19h31l-34,36h70.21A2.62,2.62,0,0,0,232,58.2h0V44.08Zm-72.88,6.66c-10.65,0-19.29-7.54-19.29-16.84s8.64-16.84,19.29-16.84,19.3,7.54,19.3,16.84S135.59,50.74,124.93,50.74Z"/></g></g></svg>
