<svg xmlns="http://www.w3.org/2000/svg" viewBox="0 0 121.66 106.74"><defs><style>.cls-1{fill:#1797d4;}</style></defs><title>Unbounce</title><g id="Layer_2" data-name="Layer 2"><g id="Content"><path class="cls-1" d="M60.83,0A39.19,39.19,0,1,0,100,39.19,39.19,39.19,0,0,0,60.83,0ZM50,66.76c.43-2.79.85-5.35,1.23-7.72-8.63-4.33-14.1-13-12.71-23.1C40.43,22.26,51,15.25,64.19,16.44a36.4,36.4,0,0,1,3.36-4.1c2.23-2.5,5.55-2.58,4.06.38-3,5.7-4.2,10-6.79,16.91C62.25,37,58.26,47.76,53,66.7c-.38,1.73-3.1,1.46-3,.06ZM83.16,41.65C81.44,54.71,69.24,62.11,57.11,60.83a51.12,51.12,0,0,1,2.32-6.64c.77-1.38,3.65-2,5.89-2.9a13.26,13.26,0,0,0,6-20.61c-1.45-1.84-2.82-3-2.36-4.69a51.17,51.17,0,0,1,2.5-7A22.45,22.45,0,0,1,83.16,41.65Z"/><path class="cls-1" d="M47.68,37.1a13.18,13.18,0,0,0,2.41,9.45c1.27,1.7,2.24,2.69,2.72,3.47A144.17,144.17,0,0,1,57,32.18c.68-2.06,1.8-5,2.61-6.92-1,.32-2.34.68-3.46,1.12A13.24,13.24,0,0,0,47.68,37.1Z"/><path class="cls-1" d="M121.66,99.31c-.1-4.63-2.85-7.89-7.51-7.89A7.52,7.52,0,0,0,106.41,99c0,4.35,3.21,7.57,8.19,7.57a7.81,7.81,0,0,0,5.68-1.94c.37-.4.18-.66-.07-.93s-.93-1-1.12-1.18a.57.57,0,0,0-.92,0,5.56,5.56,0,0,1-3.61,1.12c-2.47,0-4-1.16-4.49-3,0-.15,0-.45.27-.45h10.6c.57,0,.71-.31.72-.86Zm-3.91-1.56h-7.4s-.45.07-.25-.52a4,4,0,0,1,4.09-2.9A3.63,3.63,0,0,1,118,97.28c.09.47-.28.47-.28.47Z"/><path class="cls-1" d="M105.53,103.55c-.19-.18-1.23-1-1.36-1.17a.64.64,0,0,0-1,0,4.18,4.18,0,0,1-3.09,1.12c-2.59,0-4.15-1.9-4.15-4.49s1.55-4.49,4.15-4.49A3.84,3.84,0,0,1,103,95.71c.43.36.7.37,1,.09s1.32-1,1.46-1.15c.29-.3.36-.45,0-.92a7.07,7.07,0,0,0-5.44-2.25,7.57,7.57,0,1,0,0,15.13,7.28,7.28,0,0,0,5.47-2.11c.51-.51.19-.77,0-1Z"/><path class="cls-1" d="M85.66,91.43c-2,0-3.49,0-4.91,1.28v-.28c0-.45-.23-.69-.78-.69H77.33s0,13.12,0,13.55c0,.68.17,1,.89,1h1.71c.73,0,.88-.26.88-1V98.37a3.48,3.48,0,0,1,3.77-3.73c2,0,3,1.21,3,3.28v7.32c0,.91.23,1,1.13,1H90c.91,0,1.1-.12,1.1-1V97.65c0-3.94-2.21-6.15-5.43-6.22Z"/><path class="cls-1" d="M72.57,92.71v7c0,2.49-.93,3.84-3.25,3.84s-3.25-1.35-3.25-3.84v-7c0-.73-.2-1-.9-1H63.55c-.77,0-1,.25-1,1v7.08c0,4.25,2.35,6.81,6.6,6.81s6.88-2.56,6.88-6.81V91.74h-2.4c-.83,0-1.09.19-1.09,1Z"/><path class="cls-1" d="M37.79,91.38A7.64,7.64,0,0,0,33.2,92.9c0-4.36,0-8.19,0-8.32,0-.66-.16-.92-.89-.92H30.59c-.69,0-.81.18-.81.88v21.72h2.89c.39,0,.53-.23.53-.56,0,0,0-.19,0-.47a7.68,7.68,0,1,0,4.59-13.83Zm0,12.21a4.53,4.53,0,1,1,4.53-4.53,4.53,4.53,0,0,1-4.53,4.53Z"/><path class="cls-1" d="M23.08,91.43c-2,0-3.49,0-4.91,1.28v-.28c0-.45-.23-.69-.78-.69H14.75s0,13.12,0,13.55c0,.68.17,1,.89,1h1.71c.73,0,.88-.26.88-1V98.37A3.48,3.48,0,0,1,22,94.64c2,0,3,1.21,3,3.28v7.32c0,.91.23,1,1.13,1H28.5v-8.6c0-3.94-2.21-6.15-5.43-6.22Z"/><path class="cls-1" d="M10,92.69v7c-.15,2.49-.93,3.84-3.25,3.84s-3.1-1.35-3.25-3.84v-7c0-.62-.12-1-.76-1H.82c-.64,0-.81.28-.81.94,0,.27,0,7.12,0,7.12,0,4.25,2.35,6.81,6.6,6.81s6.88-2.56,6.88-6.81V91.74H10.79c-.57,0-.81.28-.81,1Z"/><path class="cls-1" d="M59.57,104.5a8.42,8.42,0,0,1-11.11,0,7.06,7.06,0,0,1-2.26-5.36,7,7,0,0,1,2.26-5.33,8.33,8.33,0,0,1,11.11,0,7.39,7.39,0,0,1,0,10.69ZM51,102.35a4.31,4.31,0,0,0,6,0,4.42,4.42,0,0,0,1.23-3.21A4.31,4.31,0,0,0,57,96a4.18,4.18,0,0,0-6,0,4.81,4.81,0,0,0,0,6.39Z"/></g></g></svg>