<svg xmlns="http://www.w3.org/2000/svg" viewBox="0 0 134.08 106.59"><defs><style>.cls-1{fill:#03363d;}</style></defs><title>Zendesk</title><g id="Layer_2" data-name="Layer 2"><g id="Content"><polygon class="cls-1" points="63.63 17.92 63.63 67.86 22.27 67.86 63.63 17.92"/><path class="cls-1" d="M63.63,0A20.68,20.68,0,1,1,22.27,0Z"/><path class="cls-1" d="M70.45,67.85a20.68,20.68,0,1,1,41.36,0Z"/><polygon class="cls-1" points="70.44 49.93 70.44 0 111.81 0 70.44 49.93"/><path class="cls-1" d="M89.16,103.07a6.73,6.73,0,0,0,4.78-1.85l2.37,2.56a9.32,9.32,0,0,1-7.11,2.81c-5.79,0-9.52-3.84-9.52-9a8.86,8.86,0,0,1,8.68-9h.31c5.74,0,9,4.37,8.72,10.43H83.82c.48,2.52,2.25,4.12,5.34,4.12m4.14-7C92.93,93.72,91.53,92,88.72,92a4.65,4.65,0,0,0-4.9,4.08Z"/><polygon class="cls-1" points="0 102.89 10.45 92.27 0.25 92.27 0.25 88.94 15.3 88.94 15.3 92.34 4.84 102.95 15.44 102.95 15.44 106.29 0 106.29 0 102.89"/><path class="cls-1" d="M27.17,103.07A6.73,6.73,0,0,0,32,101.23l2.37,2.56a9.32,9.32,0,0,1-7.11,2.81c-5.79,0-9.52-3.84-9.52-9a8.86,8.86,0,0,1,8.68-9h.31c5.74,0,9,4.37,8.72,10.43H21.83c.48,2.52,2.25,4.12,5.34,4.12m4.14-7C30.94,93.72,29.54,92,26.73,92a4.65,4.65,0,0,0-4.9,4.08h9.48Z"/><path class="cls-1" d="M58,97.56a8.68,8.68,0,0,1,8.71-9,7.51,7.51,0,0,1,5.79,2.6V80.9h3.69v25.33H72.47v-2.4a7.42,7.42,0,0,1-5.82,2.74,8.74,8.74,0,0,1-8.68-9m14.7,0a5.51,5.51,0,1,0-5.5,5.66,5.51,5.51,0,0,0,5.5-5.66"/><path class="cls-1" d="M99.8,102.55l3.34-1.74a5,5,0,0,0,4.46,2.53c2.09,0,3.17-1.07,3.17-2.29,0-1.39-2-1.7-4.22-2.15-3-.62-6-1.6-6-5.17,0-2.74,2.61-5.28,6.72-5.24a8,8,0,0,1,7,3.36l-3.1,1.7a4.5,4.5,0,0,0-3.9-2c-2,0-3,1-3,2.08s1.6,1.59,4.11,2.15c2.86.62,6.1,1.56,6.1,5.17,0,2.39-2.09,5.62-7,5.59-3.62,0-6.17-1.46-7.63-4"/><polygon class="cls-1" points="124.5 98.53 121.57 101.72 121.57 106.23 117.88 106.23 117.88 80.9 121.57 80.9 121.57 97.49 129.41 88.88 133.91 88.88 127.11 96.31 134.08 106.23 129.9 106.23 124.5 98.53"/><path class="cls-1" d="M46.81,88.53c-4.39,0-8.07,2.85-8.07,7.56v10.13h3.76V96.56c0-2.85,1.64-4.55,4.43-4.55s4.18,1.7,4.18,4.55v9.67h3.74V96.1c0-4.72-3.69-7.56-8.07-7.56"/></g></g></svg>